<svg width="1139" height="900" viewBox="0 0 1139 900" fill="none" xmlns="http://www.w3.org/2000/svg">
<path d="M1088.95 709.874C1073.1 747.004 1061.37 790.299 1025.68 814.293C1010.73 825.284 975.675 844.185 988.562 806.787C1010.21 750.221 1053.25 696.872 1062.14 638.027C1067.56 606.929 1065.75 575.295 1066.01 543.795C1066.01 500.231 1073.36 453.986 1066.78 409.216C1056.99 330.131 1022.45 243.405 965.752 192.469C934.438 165.392 892.556 143.945 855.313 117.807C839.076 106.682 821.937 94.8858 803.38 89.122C771.034 78.5326 734.436 82.0177 701.446 74.3773C666.137 65.6645 632.373 49.0432 595.517 45.424C470.903 33.0921 341.778 93.0092 254.922 183.89C214.715 233.754 193.452 295.012 163.298 351.041C113.426 467.793 157.499 605.32 205.05 716.174C221.288 750.355 247.963 776.761 275.541 801.157C320 840.967 358.918 884.531 415.619 905.174C570.646 968.04 753.122 935.468 880.958 826.491C902.736 807.323 941.267 766.038 948.226 765.501C952.866 765.233 950.03 770.863 949.128 774.616C925.288 834.533 869.875 873.808 821.679 911.206C805.055 925.146 789.076 940.695 770.776 952.223C740.75 971.391 703.25 981.444 672.838 1001.95C587.399 1068.3 536.625 1017.77 456.47 974.742C428.248 963.348 389.459 949.14 363.557 964.153C349.639 973.938 350.412 992.972 335.464 996.859C306.984 1001.15 276.185 983.321 254.664 965.493C234.045 945.521 224.38 921.125 195.772 891.904C150.153 847.267 112.524 817.51 88.0391 754.51C10.719 620.333 -26.5235 619.931 21.2861 449.563C39.0698 396.214 38.6831 341.122 28.2449 286.835C21.5438 196.49 92.9362 136.305 171.545 106.145C275.67 52.3942 199.638 54.2708 223.221 25.9878C244.613 2.66439 284.561 -18.2463 317.294 -37.5484C361.624 -61.6761 402.604 -87.1442 451.315 -99.4761C607.115 -129.1 798.225 -80.7102 912.917 33.2261C927.479 47.0325 938.304 62.4475 954.025 73.8411C972.324 86.173 999.515 92.339 1016.4 110.703C1035.08 129.469 1044.23 155.607 1060.08 177.054C1078.64 202.79 1106.47 236.301 1121.29 275.978C1154.93 357.61 1131.09 443.933 1126.84 527.308C1125.55 569.397 1146.94 606.929 1135.08 639.635C1125.68 665.237 1102.35 683.199 1090.24 707.461L1089.21 709.606L1088.95 709.874Z" fill="url(#paint0_linear_20540_4486)" fill-opacity="0.31"/>
<path d="M310.954 648.088C377.4 718.42 451.019 789.67 550.94 786.783C670.115 773.268 804.643 681.548 805.901 544.558C805.524 491.546 777.083 439.978 758.206 394.315C743.357 359.936 720.201 330.019 687.733 312.698C589.071 251.289 436.547 319.128 415.909 436.698C399.549 526.712 467.379 628.799 559.246 625.256C635.885 626.699 701.073 547.182 667.598 472.257C659.418 452.837 644.443 435.648 625.818 423.97C590.707 400.745 540.747 400.745 537.726 393.003C537.726 380.144 583.786 367.809 621.916 377.126C689.243 393.921 736.435 476.325 725.109 546.92C704.471 673.15 548.801 732.066 445.105 668.426C376.393 632.21 341.912 553.218 324.42 479.474C314.981 447.458 305.92 415.966 303.529 383.03C298.873 302.463 374.38 252.864 427.361 203.789C462.22 174.921 506.517 164.293 549.807 158.519C612.856 147.103 670.241 147.628 716.174 195.784C738.449 217.566 766.134 225.571 795.079 223.996C863.035 221.765 885.058 303.251 911.737 354.556C1047.9 639.034 690.376 949.623 433.527 805.678C352.231 762.508 283.646 687.321 254.953 595.601C249.919 576.706 250.926 569.489 257.47 576.575C275.466 598.75 288.68 624.731 309.192 646.119L310.954 648.088Z" fill="url(#paint1_linear_20540_4486)" fill-opacity="0.31"/>
<path d="M914.337 876.099C952.61 852.239 943.461 898.886 926.579 917.652C920.394 925.158 911.759 931.86 902.997 936.284C884.569 946.203 863.434 934.005 875.677 912.29C883.151 899.02 901.966 885.482 912.662 877.305L914.466 876.099L914.337 876.099Z" fill="url(#paint2_linear_20540_4486)" fill-opacity="0.31"/>
<path d="M518.601 544.298C532.708 549.488 549.83 549.858 562.973 542.321C586.605 529.099 587.087 490.176 558.15 483.257C539.46 478.191 508.714 488.941 503.409 462.374C501.118 453.972 503.65 444.457 502.203 436.302C500.274 429.629 486.167 450.636 483.152 471.024C477.485 499.197 489.06 531.818 516.19 543.309L518.601 544.298Z" fill="url(#paint3_linear_20540_4486)" fill-opacity="0.31"/>
<defs>
<linearGradient id="paint0_linear_20540_4486" x1="662.435" y1="1239.93" x2="594.979" y2="0.0697708" gradientUnits="userSpaceOnUse">
<stop stop-color="#091011"/>
<stop offset="0.456731" stop-color="#091011"/>
<stop offset="1" stop-color="#0E1A1C"/>
</linearGradient>
<linearGradient id="paint1_linear_20540_4486" x1="662.435" y1="1239.93" x2="594.979" y2="0.0697708" gradientUnits="userSpaceOnUse">
<stop stop-color="#091011"/>
<stop offset="0.456731" stop-color="#091011"/>
<stop offset="1" stop-color="#0E1A1C"/>
</linearGradient>
<linearGradient id="paint2_linear_20540_4486" x1="662.435" y1="1239.93" x2="594.979" y2="0.0697708" gradientUnits="userSpaceOnUse">
<stop stop-color="#091011"/>
<stop offset="0.456731" stop-color="#091011"/>
<stop offset="1" stop-color="#0E1A1C"/>
</linearGradient>
<linearGradient id="paint3_linear_20540_4486" x1="662.435" y1="1239.93" x2="594.979" y2="0.0697708" gradientUnits="userSpaceOnUse">
<stop stop-color="#091011"/>
<stop offset="0.456731" stop-color="#091011"/>
<stop offset="1" stop-color="#0E1A1C"/>
</linearGradient>
</defs>
</svg>
