<svg width="94" height="38" viewBox="0 0 94 38" fill="none" xmlns="http://www.w3.org/2000/svg">
<path fill-rule="evenodd" clip-rule="evenodd" d="M11.3209 9.11542C10.147 8.68178 8.89856 8.41107 7.58653 8.33647L7.58652 29.66C8.89577 29.5882 10.1443 29.3175 11.3209 28.881L11.3209 9.11542ZM25.6119 10.2365C24.2143 12.3026 23.0431 14.5345 22.1205 16.8601C18.969 11.1508 13.6301 6.52451 6.86782 6.52402L2.75783 6.52402C1.97615 6.3942 1.29946 5.99372 0.807795 5.43024C-0.266661 4.19006 -0.269411 2.34217 0.807795 1.09922C1.29669 0.532981 1.97893 0.132479 2.75783 0.0054404L6.86782 0.00543741C14.6184 0.00543741 21.1396 4.16789 25.6086 10.2334L25.6119 10.2365ZM70.9601 21.1359C70.0402 23.4589 68.8664 25.6934 67.4687 27.7594C71.9378 33.8251 78.4621 37.9905 86.2095 37.9874L90.3195 37.9874C91.1012 37.8575 91.7779 37.4571 92.2695 36.8936C93.344 35.6534 93.3468 33.8055 92.2695 32.5626C91.7806 31.9963 91.0984 31.5958 90.3195 31.4688L86.2095 31.4688C79.4479 31.4688 74.1115 26.8395 70.9568 21.1327L70.9601 21.1359ZM85.4944 8.33626L85.4943 29.6598C84.1851 29.588 82.9366 29.3173 81.76 28.8808L81.76 9.11436C82.9339 8.68072 84.1823 8.41086 85.4944 8.33626ZM50.3179 29.1047C51.652 28.6931 52.8978 28.0717 54.0496 27.29L54.0496 10.7055C52.8978 9.9238 51.6521 9.30232 50.3151 8.88801L50.3152 29.107L50.3179 29.1047ZM39.0236 27.29L39.0236 10.7055C40.1754 9.9238 41.4211 9.30233 42.7553 8.89077V29.1098C41.4211 28.6982 40.1754 28.0768 39.0208 27.2923L39.0236 27.29ZM27.7955 27.7567C29.1931 25.6907 30.3643 23.4588 31.2868 21.1332C32.8005 23.8732 34.8251 26.384 37.2834 28.2402C39.1727 29.6655 41.0951 30.5935 43.4374 31.1348C43.4512 31.1376 43.4651 31.1404 43.4789 31.1431C48.2243 32.1099 52.6298 30.842 56.3612 27.7846C59.5018 25.2131 61.8827 21.5671 63.3247 17.8214C65.2665 12.775 68.4979 8.05206 72.7792 4.73198C76.5496 1.80686 81.0989 0.0032038 86.2061 0.0003046L90.3161 0.000302662C91.0977 0.13012 91.7744 0.530599 92.2661 1.09408C93.3406 2.33427 93.3433 4.18215 92.2661 5.42511C91.7772 5.99134 91.095 6.39184 90.3161 6.51888L86.2061 6.51888C82.5048 6.51888 79.1847 7.89993 76.3756 10.2008C73.235 12.7724 70.8541 16.4184 69.4121 20.164C67.4703 25.2104 64.2389 29.9334 59.9576 33.2535C56.1872 36.1786 51.638 37.9822 46.5307 37.9851C38.7801 37.9851 32.2589 33.8227 27.7899 27.7572L27.7955 27.7567ZM25.9366 27.3065C21.5034 33.5573 14.8686 37.9878 6.86691 37.9848L2.75692 37.9848C1.97524 37.855 1.29855 37.4545 0.806884 36.891C-0.267572 35.6509 -0.270322 33.803 0.806884 32.56C1.29578 31.9938 1.97801 31.5933 2.75692 31.4662L6.86691 31.4662C10.5682 31.4662 13.8855 30.0879 16.6974 27.7843C19.838 25.2128 22.2189 21.5667 23.6609 17.8211C25.6027 12.7747 28.8341 8.05174 33.1154 4.73166C36.8858 1.80655 41.435 0.00288786 46.5422 -1.13325e-05C54.2928 -1.13325e-05 60.8141 4.16244 65.2831 10.2279C63.8854 12.294 62.7143 14.5259 61.7917 16.8515C60.2781 14.1114 58.2534 11.6007 55.7951 9.74451C53.9058 8.31922 51.9834 7.39112 49.6411 6.84983C49.6273 6.84707 49.6135 6.84431 49.5997 6.84154C44.8543 5.87479 40.4487 7.14263 36.7173 10.2C33.5768 12.7716 31.1958 16.4176 29.7538 20.1632C28.7981 22.6491 27.5441 25.0301 26.0194 27.1956C25.9917 27.2288 25.9669 27.2647 25.9448 27.3033L25.9366 27.3065Z" fill="white"/>
</svg>
